<svg width="960" height="960" viewBox="0 0 960 960" fill="none" xmlns="http://www.w3.org/2000/svg">
<g clip-path="url(#clip0_385_968)">
<path fill-rule="evenodd" clip-rule="evenodd" d="M751.937 360.486C729.401 334.088 702.719 311.534 672.937 293.708C618.099 260.759 552.372 243.248 482.666 247.066C384.122 252.466 298.135 299.4 242.274 369.1C215.023 402.959 195.265 442.213 184.303 484.272C176.61 514.096 173.56 544.929 175.261 575.683C184.677 747.353 337.575 878.554 516.761 868.726C695.947 858.898 833.579 711.768 824.161 540.098C820.413 471.669 793.87 409.686 751.937 360.486ZM604.626 308.666C649.781 318.435 685.085 358.752 694.737 403.942H694.736C704.376 449.132 690.566 497.45 663.453 534.866C653.801 548.196 642.169 560.605 627.422 567.886C612.675 575.167 591.24 574.91 576.88 566.886C585.231 610.998 594.215 659.165 584.458 703.007C574.701 746.849 541.962 788.83 497.452 794.815C465.123 799.173 432.079 783.477 410.679 758.844C389.279 734.211 378.468 701.765 374.942 669.331C371.416 636.897 374.661 604.135 378.48 571.724C351.41 593.218 311.408 587.926 286.518 563.946C261.628 539.966 252.96 502.674 257.118 468.366C261.746 430.087 283.38 391.866 318.918 376.92C334.896 370.198 352.233 368.576 369.612 366.949C378.369 366.13 387.136 365.31 395.746 363.836C423.52 359.089 449.423 347.572 475.286 336.073C482.927 332.676 490.565 329.28 498.246 326.061C531.926 311.946 568.936 300.936 604.626 308.666ZM741.561 371.612C740.808 370.804 739.543 370.76 738.735 371.513C737.927 372.266 737.883 373.532 738.636 374.34C784.369 423.386 807.809 492.493 801.351 559.241C801.245 560.34 802.05 561.318 803.149 561.424C804.248 561.531 805.226 560.726 805.332 559.626C811.901 491.737 788.076 421.497 741.561 371.612Z" fill="#171717"/>
<path d="M752.87 359.7L751.933 360.485C729.398 334.088 702.718 311.534 672.938 293.707C676.815 275.236 685.261 257.513 698.438 243.996C711.721 230.374 729.982 221.296 748.993 220.581C768.004 219.866 787.506 227.996 799.161 243.036C808.332 254.878 812.303 270.246 811.811 285.215C811.255 302.304 805.228 318.764 794.618 332.172C784.008 345.58 769.374 355.229 752.87 359.7V359.7Z" fill="white" fill-opacity="0.96"/>
<path d="M242.275 369.1C215.02 402.96 195.258 442.216 184.294 484.277C170.262 492.195 151.966 490.825 138.109 482.544C124.009 474.11 114.354 459.351 109.985 443.515C106.928 432.239 106.338 420.436 108.256 408.911C110.174 397.386 114.555 386.41 121.1 376.732C127.782 367.147 136.507 359.164 146.647 353.359C156.787 347.554 168.089 344.071 179.737 343.162C191.4 342.431 203.075 344.371 213.874 348.835C224.673 353.299 234.31 360.168 242.052 368.92L242.275 369.1Z" fill="white" fill-opacity="0.96"/>
<path d="M751.933 360.486C793.866 409.686 820.409 471.669 824.157 540.098C833.575 711.768 695.943 858.898 516.757 868.726C337.571 878.554 184.673 747.353 175.257 575.683C173.556 544.929 176.606 514.096 184.299 484.272C195.262 442.213 215.023 402.958 242.275 369.1C298.136 299.4 384.123 252.466 482.667 247.066C552.373 243.248 618.097 260.759 672.938 293.708C702.718 311.535 729.398 334.089 751.933 360.486V360.486Z" stroke="#171717" stroke-width="4" stroke-linecap="round" stroke-linejoin="round"/>
<path d="M576.878 566.886C591.238 574.91 612.673 575.167 627.42 567.886C642.167 560.605 653.799 548.196 663.451 534.866C690.567 497.454 704.377 449.136 694.737 403.946C685.097 358.756 649.781 318.439 604.626 308.67C568.936 300.94 531.926 311.95 498.246 326.065C464.566 340.18 431.726 357.691 395.746 363.84C370.046 368.24 342.946 366.815 318.918 376.924C283.38 391.87 261.746 430.091 257.118 468.37C252.96 502.678 261.628 539.97 286.518 563.95C311.408 587.93 351.41 593.222 378.48 571.728" stroke="#171717" stroke-width="4" stroke-linecap="round" stroke-linejoin="round"/>
<path d="M378.478 571.724C374.659 604.135 371.414 636.897 374.94 669.331C378.466 701.765 389.277 734.211 410.677 758.844C432.077 783.477 465.121 799.173 497.45 794.815C541.96 788.83 574.699 746.849 584.456 703.007C594.213 659.165 585.229 610.998 576.878 566.886" stroke="#171717" stroke-width="4" stroke-linecap="round" stroke-linejoin="round"/>
<path d="M481.274 677.788C489.262 679.405 497.523 679.054 505.344 676.763C513.166 674.473 520.311 670.312 526.164 664.641C532.017 658.97 536.401 651.958 538.937 644.213C541.473 636.468 542.085 628.222 540.719 620.188" stroke="#171717" stroke-width="4" stroke-linecap="round" stroke-linejoin="round"/>
<path d="M446.754 566.886C443.041 560.631 440.148 553.498 440.863 546.259C441.578 539.02 446.836 531.852 454.052 530.938C460.916 530.071 467.464 535.003 470.685 541.117C473.906 547.231 474.515 554.353 475.065 561.252C476.998 554.318 475.593 546.938 475.921 539.746C476.249 532.554 479.212 524.472 486.021 522.118C493.821 519.424 502.303 526.253 504.493 534.218C506.683 542.183 504.423 550.605 502.162 558.546" stroke="#171717" stroke-width="4" stroke-linecap="round" stroke-linejoin="round"/>
<path d="M379.918 486.182C375.549 473.73 383.667 458.409 396.418 455.036C409.169 451.663 423.804 460.951 426.17 473.929" stroke="#171717" stroke-width="4" stroke-linecap="round" stroke-linejoin="round"/>
<path d="M525.058 452.681C521.966 439.293 533.843 424.605 547.583 424.851C561.323 425.097 572.696 440.16 569.147 453.443" stroke="#171717" stroke-width="4" stroke-linecap="round" stroke-linejoin="round"/>
<path d="M242.053 368.92C234.311 360.168 224.673 353.299 213.874 348.835C203.076 344.371 191.4 342.431 179.738 343.162C168.09 344.071 156.788 347.554 146.648 353.359C136.508 359.164 127.783 367.147 121.101 376.732C114.556 386.409 110.175 397.384 108.257 408.908C106.339 420.432 106.928 432.235 109.985 443.51C114.354 459.346 124.006 474.11 138.109 482.539C151.966 490.82 170.262 492.19 184.294 484.272C184.54 484.143 184.794 484.003 185.044 483.851" stroke="#171717" stroke-width="4" stroke-linecap="round" stroke-linejoin="round"/>
<path d="M150.1 415.608C147.312 406.729 153.626 397.417 161.146 391.908C179.102 378.766 205.938 379.503 223.146 393.618" stroke="#171717" stroke-width="4" stroke-linecap="round" stroke-linejoin="round"/>
<path d="M672.845 294.154C672.88 294.001 672.903 293.861 672.938 293.708C676.815 275.237 685.261 257.514 698.438 243.997C711.721 230.375 729.982 221.297 748.993 220.582C768.004 219.867 787.506 227.997 799.161 243.037C808.332 254.879 812.303 270.247 811.811 285.216C811.254 302.305 805.227 318.764 794.617 332.172C784.007 345.58 769.373 355.229 752.87 359.7C753.819 359.279 754.779 358.857 755.74 358.424" stroke="#171717" stroke-width="4" stroke-linecap="round" stroke-linejoin="round"/>
<path d="M707.176 317.077C707.803 302.3 713.858 288.273 724.182 277.682C734.507 267.091 748.374 260.68 763.131 259.677" stroke="#171717" stroke-width="4" stroke-linecap="round" stroke-linejoin="round"/>
<path d="M207.019 810.467C171.765 778.529 149.864 734.462 145.694 687.075" stroke="#171717" stroke-width="4" stroke-linecap="round" stroke-linejoin="round"/>
<path d="M851.639 649.381C883.693 595.65 887.018 525.852 860.215 469.318" stroke="#171717" stroke-width="4" stroke-linecap="round" stroke-linejoin="round"/>
<path d="M914.462 571.737C918.558 560.017 918.133 547.192 913.272 535.769" stroke="#171717" stroke-width="4" stroke-linecap="round" stroke-linejoin="round"/>
<path d="M832.548 269.114C836.263 247.255 825.504 223.643 806.571 212.104" stroke="#171717" stroke-width="4" stroke-linecap="round" stroke-linejoin="round"/>
<path d="M89.9936 464.909C84.4549 456.609 80.9479 447.123 79.7565 437.217C78.5651 427.31 79.7227 417.263 83.1356 407.887" stroke="#171717" stroke-width="4" stroke-linecap="round" stroke-linejoin="round"/>
<path d="M299.613 255.505L301.8 222" stroke="#171717" stroke-width="4" stroke-linecap="round" stroke-linejoin="round"/>
<path d="M249.447 274.228C231.216 237.59 209.876 202.584 185.662 169.594" stroke="#171717" stroke-width="4" stroke-linecap="round" stroke-linejoin="round"/>
<path d="M218.745 296.338L185.252 283.955" stroke="#171717" stroke-width="4" stroke-linecap="round" stroke-linejoin="round"/>
<path d="M672.676 114.11L671.488 116.977L675.463 90.5869" stroke="#171717" stroke-width="4" stroke-linecap="round" stroke-linejoin="round"/>
<path d="M661.481 101.714C669.528 100.996 677.628 102.214 685.108 105.264" stroke="#171717" stroke-width="4" stroke-linecap="round" stroke-linejoin="round"/>
<path d="M62.4486 626.316C58.0467 619.163 51.5539 613.535 43.8486 610.193" stroke="#171717" stroke-width="4" stroke-linecap="round" stroke-linejoin="round"/>
<path d="M42.2002 632.252L59.8322 605.142" stroke="#171717" stroke-width="4" stroke-linecap="round" stroke-linejoin="round"/>
<path d="M900.642 750.209L918.042 722.946" stroke="#171717" stroke-width="4" stroke-linecap="round" stroke-linejoin="round"/>
<path d="M895.764 729.476C905.114 734.621 913.406 741.49 920.201 749.721" stroke="#171717" stroke-width="4" stroke-linecap="round" stroke-linejoin="round"/>
<path d="M499.972 196.675L491.555 186.044" stroke="#171717" stroke-width="4" stroke-linecap="round" stroke-linejoin="round"/>
<path d="M489.915 196.782L499.836 186.861" stroke="#171717" stroke-width="4" stroke-linecap="round" stroke-linejoin="round"/>
<path d="M55.0066 354.705C51.6872 350.055 47.4686 346.119 42.6006 343.13" stroke="#171717" stroke-width="4" stroke-linecap="round" stroke-linejoin="round"/>
<path d="M40.2002 359.706C44.9747 350.83 51.3638 342.924 59.0392 336.394" stroke="#171717" stroke-width="4" stroke-linecap="round" stroke-linejoin="round"/>
<path d="M890.817 426.514L905.6 413.994" stroke="#171717" stroke-width="4" stroke-linecap="round" stroke-linejoin="round"/>
<path d="M902.086 429.119C899.226 422.876 894.985 417.364 889.684 413" stroke="#171717" stroke-width="4" stroke-linecap="round" stroke-linejoin="round"/>
<g opacity="0.1">
<path d="M155.7 423.284C157.608 421.384 157.993 418.948 159.2 416.584C160.449 413.988 161.924 411.507 163.606 409.169C167.122 404.569 171.768 400.956 177.092 398.68C182.13 396.645 187.639 396.071 192.988 397.024C198.338 397.977 203.31 400.419 207.334 404.07C215.226 411.338 227.075 399.529 219.134 392.27C206.134 380.395 187.614 376.785 171.434 384.126C164.17 387.615 158.187 393.3 154.334 400.378C151.283 405.897 146.949 416.769 151.069 422.678C151.303 423.061 151.62 423.386 151.996 423.631C152.373 423.875 152.799 424.032 153.244 424.089C153.689 424.147 154.142 424.104 154.568 423.963C154.994 423.823 155.383 423.589 155.707 423.278L155.7 423.284Z" fill="#171717"/>
</g>
<g opacity="0.1">
<path d="M116.341 388.855C101.327 411.185 101.688 441.53 116.641 463.938C124.008 474.912 135.019 482.927 147.727 486.565C160.434 490.202 174.019 489.227 186.077 483.813C190.406 481.898 191.42 475.581 189.221 471.823C186.633 467.396 181.554 466.709 177.231 468.679C159.301 476.848 139.017 467.838 127.866 452.972C114.454 435.092 116.298 411.558 121.739 391.131C122.625 387.801 118.177 386.125 116.339 388.855H116.341Z" fill="#171717"/>
</g>
<g opacity="0.1">
<path d="M717.952 312.2C720.931 307.833 722.958 302.921 725.98 298.575C729.201 293.942 731.88 289.441 735.902 285.38C739.61 281.651 743.821 278.459 748.411 275.895C753.458 273.044 760.037 272.113 762.003 266.058C762.355 264.73 762.265 263.325 761.747 262.053C761.23 260.781 760.313 259.712 759.134 259.008C753.111 255.403 745.743 260.614 740.607 263.989C735.226 267.525 730.297 271.708 725.932 276.443C717.912 285.161 709.577 297.77 710.615 310.213C710.642 311.064 710.941 311.884 711.469 312.552C711.997 313.22 712.726 313.701 713.548 313.924C714.37 314.146 715.242 314.099 716.035 313.788C716.828 313.478 717.5 312.921 717.952 312.2V312.2Z" fill="#171717"/>
</g>
<g opacity="0.1">
<path d="M748.419 354.8C755.201 360.627 766.519 354.519 773.085 350.858C789.719 341.576 802.011 326.097 807.285 307.794C809.506 299.889 812.804 285.694 806.43 279.062C804.009 276.544 800.386 277.547 798.553 280.077C796.224 283.29 796.443 288.008 796.102 291.857C795.725 295.992 794.936 300.079 793.746 304.057C789.691 318.676 780.022 331.1 766.846 338.621C763.724 340.426 760.476 342.004 757.126 343.341C753.547 344.783 749.471 345.988 747.775 349.797C747.068 351.384 746.945 353.528 748.42 354.797L748.419 354.8Z" fill="#171717"/>
</g>
</g>
<defs>
<clipPath id="clip0_385_968">
<rect width="885" height="784" fill="white" transform="translate(38 88)"/>
</clipPath>
</defs>
</svg>
